<?xml version="1.0" encoding="utf-8"?>
<!-- Uploaded to: SVG Repo, www.svgrepo.com, Generator: SVG Repo Mixer Tools -->
<!DOCTYPE svg PUBLIC "-//W3C//DTD SVG 1.1//EN" "http://www.w3.org/Graphics/SVG/1.1/DTD/svg11.dtd">
<svg xmlns="http://www.w3.org/2000/svg" xmlns:xlink="http://www.w3.org/1999/xlink" version="1.1" id="Layer_1"  width="512" height="512" viewBox="0 0 512 512" enable-background="new 0 0 512 512" xml:space="preserve">
<g id="antivirus">
	<g>
		<polygon fill="#E6E9ED" points="394.672,469.348 10.656,469.348 10.656,-0.004 309.344,-0.004 394.672,85.355   "/>
	</g>
	<g>
		<polygon fill="#CCD1D9" points="309.344,85.355 394.672,85.355 309.344,-0.004   "/>
	</g>
	<g>
		<g>
			<path fill="#434A54" d="M320,256.012h-0.016H85.344h-0.016c-5.891,0-10.672,4.766-10.672,10.656     c0,5.898,4.781,10.68,10.672,10.68l0,0H320l0,0l0,0c5.891,0,10.672-4.781,10.672-10.68     C330.672,260.777,325.891,256.012,320,256.012z"/>
			<path fill="#434A54" d="M140.172,122.809l32.203,53.781l18.297-10.953l-32.188-53.781l-0.016,0.016     c-1.859-3.109-5.25-5.203-9.141-5.203c-5.891,0-10.672,4.781-10.672,10.672c0,2,0.562,3.875,1.531,5.469H140.172z"/>
			<path fill="#434A54" d="M265.25,122.809h-0.016c0.969-1.594,1.531-3.469,1.531-5.469c0-5.891-4.781-10.672-10.672-10.672     c-3.891,0-7.281,2.094-9.141,5.188h-0.016l-32.188,53.781l18.312,10.953L265.25,122.809z"/>
			<path fill="#434A54" d="M85.422,193.559c0.188,1.312,5.125,32.359,37.312,44.438l7.484-19.984     c-20.172-7.562-23.578-26.828-23.703-27.656l0.016,0.094h-0.016c-0.75-5.156-5.188-9.109-10.547-9.109     c-5.891,0-10.656,4.766-10.656,10.656c0,0.531,0.047,1.047,0.125,1.562H85.422z"/>
			<path fill="#434A54" d="M319.891,193.559h-0.016c0.078-0.5,0.125-1.031,0.125-1.547c0-5.906-4.781-10.672-10.672-10.672     c-5.359,0-9.781,3.953-10.531,9.109h-0.016c-0.031,0.188-3.156,19.859-23.703,27.562l7.5,19.984     C314.75,225.918,319.688,194.871,319.891,193.559z"/>
			<path fill="#434A54" d="M309.219,350.441c-0.188-1.312-5.125-32.344-37.312-44.438l-7.5,20     c20.188,7.562,23.594,26.812,23.719,27.656l-0.016-0.094h0.016c0.75,5.156,5.172,9.094,10.547,9.094     c5.891,0,10.656-4.75,10.656-10.656c0-0.531-0.047-1.031-0.125-1.562H309.219z"/>
			<path fill="#434A54" d="M96.109,350.441h0.016c-0.078,0.531-0.125,1.031-0.125,1.562c0,5.906,4.766,10.656,10.656,10.656     c5.375,0,9.797-3.938,10.547-9.094h0.016c0.031-0.188,3.156-19.875,23.688-27.562l-7.484-20     C101.234,318.098,96.312,349.129,96.109,350.441z"/>
		</g>
		<g>
			<path fill="#ED5564" d="M287.938,245.34c0,64.789-24.359,117.32-85.281,117.32c-60.906,0-85.266-52.531-85.266-117.32     c0-64.797,31.703-96,85.266-96C256.234,149.34,287.938,180.543,287.938,245.34z"/>
		</g>
		<path fill="#DA4453" d="M282.031,202.668h-158.75c-2.078,6.5-3.625,13.609-4.609,21.328H192v138.102    c3.422,0.375,6.969,0.562,10.656,0.562c3.703,0,7.25-0.188,10.672-0.562V223.996h73.328    C285.672,216.277,284.125,209.168,282.031,202.668z"/>
	</g>
	<path fill="#FFCE54" d="M501.281,267.246c0-3-2.406-5.438-5.344-5.453c-24.391-0.938-85.594-7.344-129.609-46.953l-0.891-0.5   l0.047-0.172c-0.859-0.516-1.844-0.812-2.859-0.828c-1.266,0.016-2.562,0.531-3.562,1.438   c-44.078,39.672-105.281,46.078-129.547,47.016c-3.062,0.016-5.453,2.453-5.484,5.453l-0.047,1.406   c4.031,111.758,72.609,198.445,135.641,242.414c0.906,0.625,1.969,0.938,3.031,0.938s2.125-0.312,3.016-0.938l0.875-0.562   c62.875-44.25,130.969-130.844,134.797-242.32L501.281,267.246z"/>
	<path fill="#F6BB42" d="M373.328,309.348c0-5.906-4.781-10.688-10.672-10.688S352,303.441,352,309.348l0,0l0,0v106.656   c0,5.906,4.766,10.656,10.656,10.656s10.672-4.75,10.672-10.656V309.348L373.328,309.348L373.328,309.348z"/>
</g>
</svg>